# xmcd
#
# Track frame offsets:
#	150
#	18591
#	42618
#	53736
#	74224
#	91701
#	106307
#	120781
#	139717
#	163132
#	178057
#	199205
#
# Disc length: 2940 seconds
#
# Revision: 1
# Processed by: cddbd v1.5.2PL0 Copyright (c) Steve Scherf et al.
# Submitted via: audiograbber 1.83.01
#
DISCID=a90b7a0c
DTITLE=Coyote Kings - Large Band Extravaganza
DYEAR=2009
DGENRE=Blues Rock
TTITLE0=Naughty Little Girl (Live)
TTITLE1=Crack The Whip (Live)
TTITLE2=Gimme More Honey
TTITLE3=Train's On Time
TTITLE4=Crazy In The Head
TTITLE5=Don't Be Strange
TTITLE6=Don't Worry
TTITLE7=Black Eyed Voodoo Child
TTITLE8=Get Well Card
TTITLE9=The Swagger
TTITLE10=Love For The Blues
TTITLE11=(You Don't Like) What's Goin' On
EXTD=
EXTT0=
EXTT1=
EXTT2=
EXTT3=
EXTT4=
EXTT5=
EXTT6=
EXTT7=
EXTT8=
EXTT9=
EXTT10=
EXTT11=
PLAYORDER=
